<svg id="Layer_1" data-name="Layer 1" xmlns="http://www.w3.org/2000/svg" viewBox="0 0 398 477.54"><defs><style>.cls-1,.cls-2{fill:#4e4f4c;}.cls-2{font-size:56px;font-family:Royce-Semibold, Royce;font-weight:600;}</style></defs><g id="Graphic_Elements" data-name="Graphic Elements"><path class="cls-1" d="M193.44,477.54c-91.54,0-166-74.46-166-166a2.15,2.15,0,0,1,4.29,0c0,89.17,72.54,161.71,161.71,161.71s161.7-72.54,161.7-161.71a2.15,2.15,0,0,1,4.3,0C359.44,403.08,285,477.54,193.44,477.54Z"/><path class="cls-1" d="M132.77,305.55a7.26,7.26,0,0,0-5.4-2.71,16.63,16.63,0,0,0-4.86.57,2.16,2.16,0,0,0-.47.16,2.3,2.3,0,0,0-1,.15,11,11,0,0,0-6.84,9,9.21,9.21,0,0,0,1.28,5.79,9.51,9.51,0,0,0,3,2.92,11.86,11.86,0,0,0,6.24,1.81,10.68,10.68,0,0,0,3.51-.58,10,10,0,0,0,6.59-7.64,14.55,14.55,0,0,0-.78-6.59A9.11,9.11,0,0,0,132.77,305.55Zm-2.45,8.72a5.39,5.39,0,0,1-3.55,4,7,7,0,0,1-5.8-.78,4.94,4.94,0,0,1-1.6-1.49,4.55,4.55,0,0,1-.58-2.87A6.38,6.38,0,0,1,122.7,308l.14-.06a2.53,2.53,0,0,0,.67,0,13.23,13.23,0,0,1,3.55-.48,2.83,2.83,0,0,1,2,.87,5.72,5.72,0,0,1,.6,1.47A10.34,10.34,0,0,1,130.32,314.27Z"/><path class="cls-1" d="M154.43,284.87a11.63,11.63,0,0,0,6.11,1.76,10.49,10.49,0,0,0,3.43-.56,9.76,9.76,0,0,0,6.44-7.48,14.14,14.14,0,0,0-.76-6.43,8.72,8.72,0,0,0-1.29-2.81,7.05,7.05,0,0,0-5.3-2.66,16.62,16.62,0,0,0-4.74.56,1.9,1.9,0,0,0-.46.15,2.26,2.26,0,0,0-1,.15,10.77,10.77,0,0,0-6.68,8.79,8.93,8.93,0,0,0,1.25,5.67A9.51,9.51,0,0,0,154.43,284.87Zm4.12-13,.12-.06a2.38,2.38,0,0,0,.65-.05,12.39,12.39,0,0,1,3.43-.46,2.67,2.67,0,0,1,1.92.82,5.32,5.32,0,0,1,.58,1.4,9.94,9.94,0,0,1,.61,4.35,5.12,5.12,0,0,1-3.4,3.86,6.66,6.66,0,0,1-5.59-.75,4.73,4.73,0,0,1-1.53-1.43,4.36,4.36,0,0,1-.56-2.74A6.13,6.13,0,0,1,158.55,271.85Z"/><path class="cls-1" d="M165.21,327.06a8.27,8.27,0,0,0-6.16-3.08,20.38,20.38,0,0,0-5.73.68,2.39,2.39,0,0,0-.58.22,2.18,2.18,0,0,0-1.12.14,12.76,12.76,0,0,0-7.94,10.44,10.54,10.54,0,0,0,1.47,6.68,11,11,0,0,0,3.52,3.37,13.82,13.82,0,0,0,7.28,2.11A12.55,12.55,0,0,0,160,347a11.53,11.53,0,0,0,7.62-8.84,17,17,0,0,0-.92-7.73A10.51,10.51,0,0,0,165.21,327.06Zm-2.1,10.31a7,7,0,0,1-4.59,5.23,8.88,8.88,0,0,1-7.41-1,6.49,6.49,0,0,1-2.07-1.94,6,6,0,0,1-.78-3.76,8.23,8.23,0,0,1,5-6.6l.26-.11a2.36,2.36,0,0,0,.79,0,16,16,0,0,1,4.41-.59,3.83,3.83,0,0,1,2.78,1.24,6.72,6.72,0,0,1,.81,1.92A12.77,12.77,0,0,1,163.11,337.37Z"/><path class="cls-1" d="M119.51,292a8.89,8.89,0,0,0,2.94-.49A8.37,8.37,0,0,0,128,285.1a11.91,11.91,0,0,0-.63-5.45,7.65,7.65,0,0,0-1.12-2.43,6.24,6.24,0,0,0-4.64-2.34,13.56,13.56,0,0,0-4,.47,1.42,1.42,0,0,0-.35.11,2.4,2.4,0,0,0-.88.15,9.24,9.24,0,0,0-5.73,7.53,7.71,7.71,0,0,0,1.09,4.91,8,8,0,0,0,2.57,2.46A9.82,9.82,0,0,0,119.51,292ZM118,279.91h0a2.57,2.57,0,0,0,.55-.06,9.22,9.22,0,0,1,2.68-.36,1.76,1.76,0,0,1,1.26.5,4,4,0,0,1,.4,1,7.87,7.87,0,0,1,.5,3.36,3.83,3.83,0,0,1-2.51,2.82,5.05,5.05,0,0,1-4.2-.57,3.45,3.45,0,0,1-1.12-1,3.12,3.12,0,0,1-.4-2A4.59,4.59,0,0,1,118,279.91Z"/><path class="cls-1" d="M288.55,217.1a120.29,120.29,0,0,0,3.65-15.27,2.3,2.3,0,0,0-.7-2.07,2.34,2.34,0,0,0-2.12-.55,108.12,108.12,0,0,0-12.87,4.13,2.22,2.22,0,0,0-.75.28c-34.26,13.45-64.21,44.46-77.28,80.65a243.35,243.35,0,0,0-10.87-64.15,69.5,69.5,0,0,0,21.93-39.4c2.81-14.88,1.25-30.92-4.5-46.37-.75-2-1.57-4-2.42-6.08,0,0,0-.06-.06-.09a2.22,2.22,0,0,0-.55-.77l-.09,0a2.31,2.31,0,0,0-.76-.4s-.08,0-.12-.06-.1,0-.16,0a1.18,1.18,0,0,0-.27-.06,3,3,0,0,0-.42.06,1.75,1.75,0,0,0-.32,0,2.41,2.41,0,0,0-.75.38s-.08,0-.12.06c-8.5,7.21-13.92,18.16-17.07,34.46-3.78,19.58-6.32,37.48.87,58.24h0c2.19,7,4,13.86,5.54,20.77a198.51,198.51,0,0,0-9.7-17.93c-8.11-13.25-16.11-22.66-25.18-29.59-11-8.38-23.47-12.69-35.4-12.34h-.17a2.67,2.67,0,0,0-.4,0c-.35,0-.71,0-1.06,0A2.33,2.33,0,0,0,114.3,183c-1.28,8.37,3,16.37,7.4,23.09a220.11,220.11,0,0,0,21.89,28.26c11.39,12.46,31.18,26,48.34,26.95a254.34,254.34,0,0,1,2.13,33.56c0,8.36-.43,17-.84,25.28-.34,6.91-.68,13.89-.79,20.87a75.53,75.53,0,0,0-12-19.33,94.41,94.41,0,0,0-30.75-23.1,2.31,2.31,0,1,0-2,4.15,89.66,89.66,0,0,1,29.26,21.95,67.26,67.26,0,0,1,15.88,34.62,124.14,124.14,0,0,0,4.93,28.7,2.27,2.27,0,0,0,2.88,1.52,2.28,2.28,0,0,0,1.52-2.87,120.08,120.08,0,0,1-4.74-27.7s0,0,0,0a.09.09,0,0,1,0-.05c-.81-12.77-.18-25.75.44-38.49.39-8,.77-16.22.82-24.32a16.55,16.55,0,0,0,8.7,2.25c4.45,0,9.58-1.34,15.17-4,31.52-15.09,55.8-43.83,66-77.12C288.54,217.12,288.55,217.11,288.55,217.1Zm-4.37-1.47c-32,45.68-59.11,62.95-73.36,69.34,17.85-15.56,52.91-47.28,74.93-74.85C285.28,212,284.74,213.8,284.18,215.63ZM209,280.49c13.37-18.09,40.94-52.83,69-72.8,1.81-.7,3.62-1.38,5.45-2C262.12,232.78,227.34,264.41,209,280.49Zm49.89-63.29c-21,18.8-40.1,42.56-51.42,57.63A137.82,137.82,0,0,1,258.84,217.2ZM205,179.86a66.73,66.73,0,0,1-13.4,29.43,185.87,185.87,0,0,0,12.14-63.44A80.1,80.1,0,0,1,205,179.86Zm-16.51,24.52c2.38-22.12,7.21-45.29,10.58-59.84A182.45,182.45,0,0,1,188.51,204.38Zm-2.06-41.67c2.09-10.81,5.2-19,9.56-25.19-3.34,13.85-9.51,41.57-12.21,67.65C181.55,190.77,183.65,177.23,186.45,162.71Zm-11.73,62.63c2.33,3.82,4.5,7.75,6.58,11.73-12.8-15.94-32.55-38-52.65-50.51a55.78,55.78,0,0,1,22,10.44C159.27,203.58,166.91,212.58,174.72,225.34ZM186.21,251c-22-13.45-48.38-45.42-60.28-60.69C150.55,205.58,175.41,236.58,186.21,251ZM147,231.21a214.89,214.89,0,0,1-21.43-27.66c-3.07-4.72-5.86-9.7-6.64-14.76,9.73,12.86,40.25,51.57,65.87,66.72C170.86,251.92,156.12,241.2,147,231.21Zm73.53,58.89c-4.5,2.16-12.17,5-17.93,2.72,7.61-1.76,37.08-11.45,75.15-60.67C265.86,257.13,245.58,278.1,220.52,290.1Z"/></g><g id="Text"><text class="cls-2" transform="translate(40.41 135.55) rotate(-53.68)">P</text><text class="cls-2" transform="translate(72.01 96.18) rotate(-38.48)">F</text><text class="cls-2" transform="matrix(0.91, -0.41, 0.41, 0.91, 107.26, 70.25)">L</text><text class="cls-2" transform="translate(146.28 53.71) rotate(-9.11)">A</text><text class="cls-2" transform="translate(197.05 47.26) rotate(7.78)">N</text><text class="cls-2" transform="translate(249.74 56.76) rotate(24.18)">Z</text><text class="cls-2" transform="matrix(0.78, 0.63, -0.63, 0.78, 291.73, 77.63)">E</text><text class="cls-2" transform="translate(325.17 106.02) rotate(54.68)">N</text></g></svg>